<?xml version="1.0" standalone="no"?><!DOCTYPE svg PUBLIC "-//W3C//DTD SVG 1.1//EN" "http://www.w3.org/Graphics/SVG/1.1/DTD/svg11.dtd"><svg t="1602738939250" class="icon" viewBox="0 0 1024 1024" version="1.1" xmlns="http://www.w3.org/2000/svg" p-id="3802" xmlns:xlink="http://www.w3.org/1999/xlink" width="200" height="200"><defs><style type="text/css"></style></defs><path d="M486.4 503.467H264.533v324.266h494.934V503.467H537.6v247.466a25.6 25.6 0 1 1-51.2 0V503.467zM536.132 332.8a25.566 25.566 0 0 1 1.468 8.533v110.934H768a59.733 59.733 0 0 0 0-119.467H536.132z m-48.264 0H256a59.733 59.733 0 0 0 0 119.467h230.4V341.333c0-3.003 0.512-5.87 1.468-8.533zM213.333 494.933A110.967 110.967 0 0 1 256 281.6h200.021l-106.94-106.974a25.6 25.6 0 0 1 36.182-36.181L512 265.114l126.703-126.737a25.6 25.6 0 0 1 36.215 36.215L567.945 281.6H768a110.933 110.933 0 0 1 42.667 213.333v358.4a25.6 25.6 0 0 1-25.6 25.6H238.933a25.6 25.6 0 0 1-25.6-25.6v-358.4z" p-id="3803" fill="#ff8198"></path></svg>